<svg aria-hidden="true" style="position: absolute; width: 0; height: 0; overflow: hidden;" version="1.1"
    xmlns="http://www.w3.org/2000/svg" xmlns:xlink="http://www.w3.org/1999/xlink">
    <defs>
        <symbol id="upwork" viewBox="0 0 32 32">
            <path fill="#6fda44" style="fill: var(--color1, #6fda44)"
                d="M4.799 0h22.401c2.651 0 4.799 2.148 4.799 4.799v22.401c0 2.651-2.148 4.799-4.799 4.799h-22.401c-2.651 0-4.799-2.148-4.799-4.799v-22.401c0-2.651 2.148-4.799 4.799-4.799v0z">
            </path>
            <path fill="#fff" style="fill: var(--color2, #fff)"
                d="M22.326 18.557c-1.063 0-2.063-0.451-2.964-1.182l0.219-1.036 0.005-0.036c0.201-1.099 0.818-2.951 2.737-2.951 1.438 0 2.607 1.169 2.607 2.607 0.003 1.435-1.167 2.599-2.604 2.599v0 0zM22.326 10.714c-2.451 0-4.344 1.589-5.12 4.206-1.174-1.768-2.068-3.888-2.589-5.674h-2.635v6.857c0 1.357-1.099 2.456-2.456 2.456s-2.456-1.099-2.456-2.456v-6.865h-2.63v6.857c0 2.807 2.281 5.112 5.089 5.112s5.089-2.307 5.089-5.112v-1.151c0.513 1.068 1.138 2.151 1.901 3.099l-1.612 7.589h2.693l1.169-5.5c1.026 0.656 2.201 1.068 3.549 1.068 2.888 0 5.237-2.362 5.237-5.255 0.003-2.88-2.341-5.229-5.229-5.229v0z">
            </path>
        </symbol>
        <symbol id="telegramTag" viewBox="0 0 32 32">
            <path fill="#34aadf" style="fill: var(--color3, #34aadf)"
                d="M16 32c8.837 0 16-7.163 16-16s-7.163-16-16-16c-8.837 0-16 7.163-16 16s7.163 16 16 16z"></path>
            <path fill="#fff" style="fill: var(--color2, #fff)"
                d="M6.659 15.861c0 0 8-3.283 10.775-4.439 1.064-0.462 4.671-1.942 4.671-1.942s1.665-0.647 1.526 0.925c-0.046 0.647-0.416 2.913-0.786 5.364-0.555 3.468-1.156 7.26-1.156 7.26s-0.092 1.064-0.878 1.249c-0.786 0.185-2.081-0.647-2.312-0.832-0.185-0.139-3.468-2.22-4.671-3.237-0.324-0.277-0.694-0.832 0.046-1.48 1.665-1.526 3.653-3.422 4.856-4.624 0.555-0.555 1.11-1.85-1.202-0.278-3.283 2.266-6.52 4.393-6.52 4.393s-0.74 0.462-2.127 0.046c-1.387-0.416-3.006-0.971-3.006-0.971s-1.11-0.694 0.786-1.434z">
            </path>
        </symbol>
        <symbol id="linkedin" viewBox="0 0 32 32">
            <path fill="#0e76a8" style="fill: var(--color4, #0e76a8)"
                d="M16 0c8.837 0 16 7.164 16 16s-7.163 16-16 16c-8.837 0-16-7.164-16-16s7.163-16 16-16z"></path>
            <path fill="#fff" style="fill: var(--color2, #fff)"
                d="M9.016 21.984h2.996v-9.986h-2.996v9.986zM20.688 11.652c-1.454 0-2.755 0.531-3.678 1.703v-1.39h-3.007v10.019h3.007v-5.418c0-1.145 1.049-2.262 2.363-2.262s1.638 1.117 1.638 2.234v5.445h2.996v-5.668c-0-3.937-1.864-4.663-3.319-4.663zM10.5 11c0.828 0 1.5-0.672 1.5-1.5s-0.672-1.5-1.5-1.5c-0.828 0-1.5 0.672-1.5 1.5s0.672 1.5 1.5 1.5z">
            </path>
        </symbol>
        <symbol id="github" viewBox="0 0 32 32">
            <path
                d="M16 0c-8.836 0-16 7.164-16 16s7.164 16 16 16 16-7.163 16-16c-0-8.836-7.164-16-16-16zM20.482 28.189c-0.092-1.252-0.195-2.803-0.201-3.431-0.040-0.482-0.092-1.708-1.256-2.491 4.621-0.387 6.82-2.941 6.978-6.316 0.132-1.922-0.632-3.612-1.989-4.976 0.069-1.459-0.044-3.188-0.138-3.948-1.042-0.3-3.472 0.983-4.151 1.532-1.432-0.556-4.937-0.751-7.067 0-1.51-1.062-3.229-1.718-4.166-1.535-0.865 1.917-0.309 3.729-0.14 3.945-1.114 1.018-2.668 2.271-2.246 4.896 0.677 3.849 3.385 5.925 7.745 6.433-0.93 0.19-1.087 0.884-1.165 1.185-2.928 1.208-3.765-0.746-4.135-1.255-1.229-1.521-2.332-1.080-2.4-1.056-0.066 0.024-0.116 0.12-0.109 0.166 0.062 0.328 0.731 0.661 0.764 0.688 0.907 0.676 1.243 1.897 1.45 2.245 1.301 2.139 4.325 1.252 4.354 1.27 0.002 0.187-0.021 1.761-0.039 2.986-5.514-1.506-9.571-6.536-9.571-12.527 0-7.18 5.82-13 13-13s13 5.82 13 13c0 5.603-3.55 10.362-8.518 12.189z">
            </path>
        </symbol>
        <symbol id="logo" viewBox="0 0 42 50">
            <rect x="0.5" y="0.5" width="41" height="7" fill="#240505" stroke="black" stroke-linejoin="round" />
            <rect x="17.5" y="1.5" width="7" height="48" fill="#240505" stroke="black" stroke-linejoin="round" />
            <rect x="0.5" y="18.5" width="7" height="31" fill="#240505" stroke="black" stroke-linejoin="round" />
            <circle cx="4" cy="13" r="4" fill="#240505" />
        </symbol>
    </defs>
</svg>